<svg xmlns="http://www.w3.org/2000/svg" width="323.823" height="150.352" viewBox="0 0 323.823 150.352">
  <g id="Group_2" data-name="Group 2" transform="translate(-457.025 -279.75)">
    <g id="Group_1" data-name="Group 1" transform="translate(457.433 279.75)">
      <rect id="Rectangle_1" data-name="Rectangle 1" width="323.058" height="101.717" fill="#e92226"/>
      <path id="Path_5" data-name="Path 5" d="M3.891-61.439H18.359a29.809,29.809,0,0,1,7.335.892,15.336,15.336,0,0,1,6.2,3.141,15.619,15.619,0,0,1,4.276,6.1,25.752,25.752,0,0,1,1.6,9.808A32.263,32.263,0,0,1,37-33.982a19.432,19.432,0,0,1-2.148,5.471,13.579,13.579,0,0,1-3.242,3.749,15.425,15.425,0,0,1-4.053,2.29,20.667,20.667,0,0,1-4.62,1.155,36.758,36.758,0,0,1-4.863.324H15.36V0H3.891ZM18.764-30.558a9.6,9.6,0,0,0,3.445-.547,5.094,5.094,0,0,0,2.33-1.8,8.539,8.539,0,0,0,1.337-3.3,25.29,25.29,0,0,0,.426-5.046,23.337,23.337,0,0,0-.426-4.843,7.926,7.926,0,0,0-1.337-3.161,4.965,4.965,0,0,0-2.351-1.7,10.621,10.621,0,0,0-3.506-.507H15.36v20.912ZM75.363,0H63.853L56.113-21.925H51.979V0H40.591V-61.439H55.707a25.71,25.71,0,0,1,7.761,1.094,14.715,14.715,0,0,1,5.9,3.445,15.268,15.268,0,0,1,3.729,6.059,27.194,27.194,0,0,1,1.3,8.936,30.5,30.5,0,0,1-.365,4.64,19.879,19.879,0,0,1-1.277,4.58,16.924,16.924,0,0,1-2.432,4.114,13.452,13.452,0,0,1-3.83,3.242ZM55.707-31.206a9.391,9.391,0,0,0,3.242-.507,4.879,4.879,0,0,0,2.27-1.7,8.351,8.351,0,0,0,1.337-3.2A23.817,23.817,0,0,0,63-41.662a21.406,21.406,0,0,0-.446-4.8,7.352,7.352,0,0,0-1.358-3,4.805,4.805,0,0,0-2.31-1.56,11.072,11.072,0,0,0-3.344-.446H51.979v20.264ZM79.074-61.439H90.705V0H79.074Zm17.368,0h14.022l7.984,43.526h.324l7.984-43.526h14.1V0H130.4V-43.4h-.243q-.243,2.229-.547,4.235t-.648,3.891q-.344,1.885-.729,3.749t-.75,3.81L122.258,0h-8.551L108.4-28.45q-.365-1.824-.75-3.769t-.709-3.87q-.324-1.925-.628-3.789t-.466-3.526H105.6V0H96.442Zm50.114,0h11.631V0H146.557Zm25.352,9.97H160.967v-9.97h33.678v9.97H183.621V0H171.909Zm25.474-9.97h11.631V0H197.383Zm13.964,0H222.9l5.147,27.234q.446,2.391.831,4.539t.77,4.4q.385,2.249.75,4.782t.729,5.613h.324q.324-3.08.669-5.532t.709-4.661q.365-2.209.77-4.336t.851-4.559l5.228-27.478h10.294L236.433.243H224.8Zm40.51,0h28.572v9.97h-16.94V-36.92h12.118v9.362H263.488V-9.727h17.67V0h-29.3Z" transform="translate(17.908 80.149)" fill="#fff"/>
    </g>
    <path id="Path_6" data-name="Path 6" d="M9.424.354A9.319,9.319,0,0,1,6.079-.232,7.041,7.041,0,0,1,3.418-2.014a8.374,8.374,0,0,1-1.758-3,12.867,12.867,0,0,1-.635-4.26,12.32,12.32,0,0,1,.653-4.205,8.492,8.492,0,0,1,1.788-3,7.293,7.293,0,0,1,2.667-1.776,9.047,9.047,0,0,1,3.29-.592,9.223,9.223,0,0,1,3.033.446,6.612,6.612,0,0,1,2.167,1.215,6.3,6.3,0,0,1,1.447,1.849,9.912,9.912,0,0,1,.848,2.313L13.074-11.9a9.928,9.928,0,0,0-.519-1.453,4.416,4.416,0,0,0-.726-1.135,3.049,3.049,0,0,0-1.019-.726,3.46,3.46,0,0,0-1.41-.262,3.821,3.821,0,0,0-1.849.433,3.734,3.734,0,0,0-1.337,1.239,5.946,5.946,0,0,0-.83,1.953A10.858,10.858,0,0,0,5.1-9.277a11.191,11.191,0,0,0,.287,2.643,6.172,6.172,0,0,0,.836,2,3.784,3.784,0,0,0,1.361,1.27,3.848,3.848,0,0,0,1.862.439,3.8,3.8,0,0,0,1.434-.25,3.11,3.11,0,0,0,1.093-.751,4.465,4.465,0,0,0,.8-1.215,9.832,9.832,0,0,0,.58-1.678l3.821.854a11.687,11.687,0,0,1-.94,2.557,6.833,6.833,0,0,1-1.526,2A6.674,6.674,0,0,1,12.469-.11,9.061,9.061,0,0,1,9.424.354ZM22.975,0V-18.506h4.053V0ZM33.681,0V-18.506h4.065L45.5-6.7h.049v-11.8h3.76V0h-3.76L37.478-11.9h-.049V0ZM55.753,0V-18.506h12.6V-15.1H59.818v3.979h6.177V-7.9H59.818v4.6H68.8V0Zm18.47,0V-18.506h5.371L83.72-4.9h.049l3.845-13.611H93.12V0H89.189V-12.622H89.14q-.1.6-.214,1.129t-.238,1.019q-.134.5-.281.983t-.293.995L85.344,0h-3.6L79-8.5l-.293-.97q-.134-.446-.256-.934t-.25-1.056q-.128-.58-.275-1.373h-.049V0ZM98.1,0l6.543-18.579h3.882L115.069,0h-4.126l-1.367-4.126h-6.3L101.849,0Zm6.177-7.08h4.346l-2.124-6.3h-.049ZM121.955,0V-15.1h-5.505v-3.406h15.1V-15.1h-5.53V0Zm14.894,0V-18.506H140.9V0Zm18.226.354a9.319,9.319,0,0,1-3.345-.586,7.041,7.041,0,0,1-2.661-1.782,8.374,8.374,0,0,1-1.758-3,12.867,12.867,0,0,1-.635-4.26,12.321,12.321,0,0,1,.653-4.205,8.492,8.492,0,0,1,1.788-3,7.294,7.294,0,0,1,2.667-1.776,9.047,9.047,0,0,1,3.29-.592,9.223,9.223,0,0,1,3.033.446,6.612,6.612,0,0,1,2.167,1.215,6.3,6.3,0,0,1,1.447,1.849,9.912,9.912,0,0,1,.848,2.313L158.724-11.9a9.927,9.927,0,0,0-.519-1.453,4.416,4.416,0,0,0-.726-1.135,3.049,3.049,0,0,0-1.019-.726,3.46,3.46,0,0,0-1.41-.262,3.821,3.821,0,0,0-1.849.433,3.734,3.734,0,0,0-1.337,1.239,5.946,5.946,0,0,0-.83,1.953,10.857,10.857,0,0,0-.281,2.576,11.191,11.191,0,0,0,.287,2.643,6.172,6.172,0,0,0,.836,2,3.784,3.784,0,0,0,1.361,1.27,3.848,3.848,0,0,0,1.862.439,3.8,3.8,0,0,0,1.434-.25,3.11,3.11,0,0,0,1.093-.751,4.465,4.465,0,0,0,.8-1.215,9.832,9.832,0,0,0,.58-1.678l3.821.854a11.687,11.687,0,0,1-.94,2.557,6.833,6.833,0,0,1-1.526,2A6.674,6.674,0,0,1,158.12-.11,9.061,9.061,0,0,1,155.075.354Zm29.9-.049a9.672,9.672,0,0,1-3.339-.519A6,6,0,0,1,179.308-1.7a5.95,5.95,0,0,1-1.361-2.319A9.859,9.859,0,0,1,177.5-7.08V-18.506h4.077V-7.178a7.375,7.375,0,0,0,.2,1.782,3.308,3.308,0,0,0,.623,1.306,2.593,2.593,0,0,0,1.068.812A4.037,4.037,0,0,0,185.033-3a3.021,3.021,0,0,0,2.594-1.074,5.131,5.131,0,0,0,.8-3.1V-18.506h4V-7.1a10.088,10.088,0,0,1-.439,3.082A5.885,5.885,0,0,1,190.636-1.7,6,6,0,0,1,188.31-.214,9.672,9.672,0,0,1,184.972.305ZM198.584,0V-18.506h4.065L210.4-6.7h.049v-11.8h3.76V0h-3.76L202.38-11.9h-.049V0ZM220.85,0V-18.506H224.9V0Zm15.6.073L230.08-18.506h4.126l4.224,13.232h.049l4.37-13.232h3.833L240.3.073ZM251.663,0V-18.506h12.6V-15.1h-8.533v3.979H261.9V-7.9h-6.177v4.6h8.984V0Zm18.47,0V-18.506h6.946a13.4,13.4,0,0,1,3.058.317,6.3,6.3,0,0,1,2.289,1,4.494,4.494,0,0,1,1.434,1.782,6.307,6.307,0,0,1,.494,2.625,6.8,6.8,0,0,1-.256,1.953,4.716,4.716,0,0,1-.745,1.5,4.51,4.51,0,0,1-1.2,1.1,6.67,6.67,0,0,1-1.642.732L284.623,0h-4.3l-3.845-6.97h-2.356V0Zm3.992-10.12h2.783a7.687,7.687,0,0,0,1.532-.134,2.814,2.814,0,0,0,1.08-.439,1.885,1.885,0,0,0,.641-.793,2.947,2.947,0,0,0,.214-1.184,2.148,2.148,0,0,0-.854-1.935,4.786,4.786,0,0,0-2.612-.568h-2.783ZM297.039.354A10.156,10.156,0,0,1,294.31.012a8.171,8.171,0,0,1-2.191-.952,7.378,7.378,0,0,1-1.709-1.434A9.156,9.156,0,0,1,289.165-4.2l3.076-1.831a5.945,5.945,0,0,0,.909,1.343,5.532,5.532,0,0,0,1.178.989,5.146,5.146,0,0,0,1.373.61,5.636,5.636,0,0,0,1.532.208,6.149,6.149,0,0,0,1.3-.128,3.155,3.155,0,0,0,1.019-.4,2,2,0,0,0,.665-.665A1.781,1.781,0,0,0,300.457-5a1.661,1.661,0,0,0-.244-.909,2.3,2.3,0,0,0-.72-.69,6.064,6.064,0,0,0-1.172-.562q-.7-.256-1.611-.513-.83-.232-1.648-.47a15.651,15.651,0,0,1-1.562-.543,9.414,9.414,0,0,1-1.4-.7,4.641,4.641,0,0,1-1.123-.958,4.1,4.1,0,0,1-.745-1.276,4.9,4.9,0,0,1-.269-1.7,5.346,5.346,0,0,1,.482-2.313,4.972,4.972,0,0,1,1.361-1.74,6.247,6.247,0,0,1,2.112-1.086,9.248,9.248,0,0,1,2.722-.378,9.6,9.6,0,0,1,2.57.317,8.68,8.68,0,0,1,2.045.842,7.406,7.406,0,0,1,1.575,1.208,9.389,9.389,0,0,1,1.16,1.428l-2.82,2.148a5.638,5.638,0,0,0-.873-1.074,5.738,5.738,0,0,0-1.093-.83,5.689,5.689,0,0,0-1.257-.531,4.8,4.8,0,0,0-1.331-.189,3.284,3.284,0,0,0-1.984.513,1.6,1.6,0,0,0-.69,1.343,1.736,1.736,0,0,0,.25.946,2.167,2.167,0,0,0,.739.69,5.674,5.674,0,0,0,1.2.543q.708.238,1.611.494.806.22,1.624.464a14.72,14.72,0,0,1,1.563.562,9.123,9.123,0,0,1,1.385.732,5.058,5.058,0,0,1,1.117.977,4.22,4.22,0,0,1,.745,1.3,4.93,4.93,0,0,1,.269,1.691A5.376,5.376,0,0,1,304-3.137a4.919,4.919,0,0,1-1.337,1.794,6.623,6.623,0,0,1-2.3,1.239A10.735,10.735,0,0,1,297.039.354ZM310.113,0V-18.506h12.6V-15.1h-8.533v3.979h6.177V-7.9h-6.177v4.6h8.984V0Z" transform="translate(456 419.793)" fill="#fff"/>
    <line id="Line_1" data-name="Line 1" x2="323.058" transform="translate(457.791 391.137)" fill="none" stroke="#fff" stroke-width="2"/>
    <line id="Line_2" data-name="Line 2" x2="323.058" transform="translate(457.791 429.102)" fill="none" stroke="#fff" stroke-width="2"/>
  </g>
</svg>
